<svg xmlns="http://www.w3.org/2000/svg" viewBox="0 0 540.59 150.22"><defs><style>.cls-1{fill:#231f20;}</style></defs><title>Asset 1</title><g id="Layer_2" data-name="Layer 2"><g id="Layer_1-2" data-name="Layer 1"><path class="cls-1" d="M81.83,54.65a122.45,122.45,0,0,0,4.55-19.32c1-5.33,2.19-10.85,1.91-16.31-.42-8.48-5.1-16.87-14.53-17.22-10.87-.39-19.4,9.26-26,16.66A193.56,193.56,0,0,0,27.65,45.55C15.85,64.75,6.57,85.9,1.61,108-1,119.39-1.31,132.11,7.19,141.31c8,8.65,20.64,10,31.65,8.22C62.55,145.67,84,127.12,94.3,105.91c2.78-5.73,1.56-12.76-4.24-16.16-5.13-3-13.43-1.56-16.16,4.24-6.37,13.51-17,24.59-30.91,30.43-5.79,2.43-12.76,4.3-17.86,2.71a7.77,7.77,0,0,1-4.65-3.55c-1.75-3.13-1.53-7.51-1.35-11,.86-16.92,6.65-34.4,13.63-49.71a168.74,168.74,0,0,1,30-44.62c2.77-3,7.25-7.67,11.77-6.84,4.27.77,4.86,6,4.9,9.56.14,11-3.24,21.82-3,32.9.07,3.2,4.41,3.65,5.43.73Z"/><path class="cls-1" d="M99.39,25.12a33,33,0,0,0-2.86-2.93c-2.07-1.84-4.74-.43-5.06,2.1-2,16.12-2,32.58-2.53,48.81s.1,32.83-2,48.81H98c.31-10.09-.77-20.76,3.66-30.2,3.11-6.64,10.85-13.39,18.7-11.55,7.33,1.72,9.56,10.89,10.13,17.38.41,4.63.27,9.3.5,13.94.23,4.93,2.09,10.46,1.57,15.26-.9,8.21,9.54,12.81,15.87,9.11,7.23-4.23,6.37-13.81,0-18.22l-1.13-.77,3.48,3.47c-3.38-4.69-3.38-11.7-4.09-17.26-.74-5.78-1.6-11.43-3.78-16.87-4.12-10.22-12.5-18.89-24.11-19.29-11-.38-21.69,7.09-27,16.42-6.48,11.42-6.59,25.9-4.91,38.58.91,6.9,11.78,7.23,11.11,0-1.49-16-.19-32.72-.06-48.81s.83-32.65-.56-48.81l-4.46,2.56a30.61,30.61,0,0,0,3.61,1.95,2.35,2.35,0,0,0,2.84-3.68Z"/><path class="cls-1" d="M179.29,72.26c-5.41-10.54-17.72-15.3-28.52-9.72-11.91,6.16-12.47,20.73-10.57,32.3,1.87,11.39,5.79,25.46,18.93,27.91,14.33,2.66,26.14-14,20.6-26.85-1-2.26-4.66-3.1-6.61-1.73-3.25,2.28-4.79,4.94-7,8.15-1,1.54-2.57,3.92-4.74,3.74,1.22.1-.74-.5-1.16-1a12,12,0,0,1-1.95-3.37,61.4,61.4,0,0,1-2.69-9.54c-1.15-5.09-2.43-11.9.9-16.47,4-5.46,11.78-4.49,14.87,1.19,2.84,5.22,10.63.61,7.93-4.63Z"/><path class="cls-1" d="M173.53,71.53c-2.11,4.34-1.42,8.86-.86,13.52.63,5.2,1.43,10.41,1.79,15.63.9,13.27,21.13,8.73,15.6-4.22-3.52-8.26-4.83-20.35-12.3-26a3.1,3.1,0,0,0-4.23,1.11Z"/><path class="cls-1" d="M191.43,60.86c.28,12.67.44,25.35.57,38l15.37-4.17c-5.36-12.31-11.92-25-15.24-38.09l-.59,4.45.79-1L184,63.45C201.22,68,223.48,60.8,230.2,43.27c2.17-5.68-4.75-8.85-9.09-7-5.86,2.51-11.33,5.82-17.19,8.3a65.11,65.11,0,0,1-18,4.31c-7.79.89-10.67,12.26-2,14.56l1,.28-4-4c5.46,13,8,27.74,11.32,41.38,2.5,10.32,18.32,6,15.9-4.39-2.88-12.29-5.74-24.6-8.48-36.94-1-4.66-8.39-3.62-8.29,1.12Z"/><path class="cls-1" d="M231.57,2.11c-4.17,30.08-9.76,60-14.24,90-1.24,8.33,10.32,12,12.93,3.56a9.93,9.93,0,0,0,.65-2.8c.45-2.87-1.2-6.13-4.57-6a28.68,28.68,0,0,0-4.32.55l8.48,6.46c2.56-30.29,4-60.69,6.87-91,.31-3.28-5.34-4.09-5.8-.79Z"/><path class="cls-1" d="M240.09,66.92a33.41,33.41,0,0,0-2.39,11.32c-.36,4.56-1,9.52-.42,14.06.83,6.69,10.26,7,10.68,0,.27-4.5-.71-9.26-1.29-13.73-.52-4-1.18-8-3.1-11.65-.66-1.25-2.87-1.39-3.48,0Z"/><path class="cls-1" d="M247.06,39.52l.33-.83-4.67,2.65.39.08-4.76-6.26a10.71,10.71,0,0,0,2.7,7,9.94,9.94,0,0,0,4.18,2.91c2.17.72,4.11-.53,5.35-2.17a9.26,9.26,0,0,0,1.34-4.44,10.08,10.08,0,0,0-1.48-6.61,6.58,6.58,0,0,0-10.19-1.32,6.7,6.7,0,0,0-1.9,4.59c0,2.5,1.32,4.18,3.21,5.61l.25.19-1.74-4.29-.24.85a3.81,3.81,0,0,0,2.62,4.62,3.86,3.86,0,0,0,4.61-2.62Z"/><path class="cls-1" d="M258,86.36c7.45,1,15.17,2.75,22.23-1,5.49-2.9,9.61-8.78,9.71-15.1a14.81,14.81,0,0,0-11.24-14.47c-7-1.87-14.36.89-19.24,6.06-10.32,11-12.31,30.6-6.3,44a31,31,0,0,0,15,15.23c7.06,3.26,17.34,4.46,21.64-3.74,1.87-3.57.66-7.2-2.49-9.49-5.79-4.2-13.18-1.71-18.08-7.91-4.63-5.86-4.13-14.49-2.22-21.25.9-3.21,2.41-7.74,5.82-9.14,1.26-.52,3.37-.69,4.1.71,1.4,2.69-3.34,6.25-5.15,7-4.25,1.82-9.33,1.45-13.79.88-5.19-.67-5.15,7.5,0,8.16Z"/><path class="cls-1" d="M357.11,70.74c-2.44-11.28-15.36-14.28-24.81-10.14-11.08,4.86-20.63,17.33-21.13,29.57-.53,12.8,9.17,22.18,21.57,23.07,13.8,1,24.45-8,32.58-18,5-6.2-2.48-13.6-8.69-8.68-5.49,4.35-11.84,10.46-18.87,12-5.29,1.19-11.54-.25-12.79-6.27-2.12-10.22,18.41-33.23,25.29-18.66,1.89,4,7.71,1.07,6.85-2.89Z"/><path class="cls-1" d="M398,62.42a9.92,9.92,0,0,0-7.27-8.88C385.31,52,380,54.74,376,58.21c-8.75,7.57-16.91,19.17-15.2,31.26,1.77,12.53,13.77,19.14,25.64,15.65,11.59-3.4,19.37-15.65,20.49-27.28.35-3.62-4.57-5.14-6.88-2.86-4.6,4.54-7.26,10.81-12.44,14.84-4,3.13-11.28,5.29-14.05-.48-2.85-5.94,1.31-12.71,4.62-17.44,2.36-3.36,11.25-16.71,15.7-8.37,1,1.87,4.28,1.08,4.11-1.11Z"/><path class="cls-1" d="M394.83,54.67C390,60.11,392,70.42,392,77.24c.05,7.26-1.9,19.44,5.74,23.39,2.86,1.48,5.49.88,7.89-1,6.35-5,2.3-16.66,1.13-23.38-.67-3.86-1.28-7.74-2.05-11.58s-1.14-7.53-4.24-10c-1.61-1.27-4.07-1.75-5.64,0Z"/><path class="cls-1" d="M412.88,51.31l-2.59,22.36c-.79,6.78-3.46,15.72-1.13,22.25,3,8.34,16.45,4.59,13.3-3.67-2.23-5.81-2.23-12.74-4-18.79a72.65,72.65,0,0,0-2.82-8c-.21-.52-4.57-9.63-4.84-9.31h-7c9,9.74,25.61,11.75,36.53,4.41,6-4.06,2.14-12.58-4.81-11.39a57.56,57.56,0,0,1-26.89-1.33c-7.38-2.09-8.27,10.56-1.32,9.77,2.23-.26,4,15.26,4.15,16.78.37,4.78,1,11.92-1.6,16.19l11.91,7c3.26-6.88,1.74-15.46,1.62-22.92L423,51.31c-.11-6.68-9.39-6.32-10.13,0Z"/><path class="cls-1" d="M439.22,79c2.5,5.17,9,6.43,14,4.15,5.92-2.72,10.47-9.58,12.65-15.49,2.39-6.5,1.28-14-5.55-17.14-7.26-3.31-14.83,1.15-18.86,7.21-8.57,12.9-12.8,33.58-1.09,45.89,5.87,6.17,14.73,8,22.83,5.91,9.37-2.44,15.46-9,20.45-16.86,3.11-4.86-3.13-11.25-8-8-5.89,3.89-13.5,11.5-21,11.17-8.78-.38-9.5-11.81-8.2-18.19a54.66,54.66,0,0,1,3.94-12.22c.87-1.85,5.49-8.51,6.92-3.79,1.35,4.47-8.49,21.64-13.35,14.63A2.72,2.72,0,0,0,439.22,79Z"/><path class="cls-1" d="M491.29,42.08c-5.72-4.09-12.61-1.28-17,3.51A18.67,18.67,0,0,0,471,65.12c2.63,6.74,8.19,12,14.51,15.38s14.93,4.59,20.52,9.18l1.55-12c-7.95,5.34-16.5,11.79-21,20.51-2.42,4.72,1.77,12.62,7.79,10.12,9.21-3.82,16.31-10.92,22.46-18.61,2.92-3.65,3.19-9.49-1.55-12A112.29,112.29,0,0,0,501.8,71.4c-4.48-1.68-9.25-3.15-13.06-6.16-2.72-2.15-5.8-5.42-5.35-9.19s5.06-6.28,7.9-8.3a3.34,3.34,0,0,0,0-5.67Z"/><path class="cls-1" d="M531.92,73l-.12,0,5.28.7c-2.81-2-6.76-1.2-9.11,1.1l-.69.69L526.21,77a5,5,0,0,0-.82,2.56,3.35,3.35,0,0,0,0,1.83,5.1,5.1,0,0,0,.82,2.57,8.2,8.2,0,0,0,2.47,2.47,7.66,7.66,0,0,0,5.31.69l.67-.1.26,0a2.33,2.33,0,0,0,1-.39,5,5,0,0,0,1-.43,7.26,7.26,0,0,0,3.58-6.24V79.7l-3.4,5.93.12-.08a5.32,5.32,0,0,0,1.92-1.76,5.18,5.18,0,0,0,1.22-2.33l.25-1.82A5.27,5.27,0,0,0,540,77a3.49,3.49,0,0,0-.88-1.51,5.26,5.26,0,0,0-1.92-1.77,7,7,0,0,0-5.28-.69Z"/></g></g></svg>